# xmcd
#
# Track frame offsets: 
#        150
#        16275
#        35894
#        59057
#        80348
#        108291
#        133349
#        152550
#        166354
#        183698
#        212180
#        231753
#        247302
#
# Disc length: 3623 seconds
#
# Revision: 1
# Processed by: cddbd v1.5.2PL0 Copyright (c) Steve Scherf et al.
# Submitted via: ExactAudioCopy v0.99pb4
#
DISCID=bf0e250d
DTITLE=Krissy Matthews - Hit The Rock
DYEAR=2011
DGENRE=
TTITLE0=Feeling For The Blues
TTITLE1=Sweet Loving
TTITLE2=Tell Me
TTITLE3=Mystery Train
TTITLE4=Time Machine
TTITLE5=When Times Were Hard
TTITLE6=Images
TTITLE7=Hit The Rock'N'Roll The Car
TTITLE8=Too Much
TTITLE9=You Can't Always Get What You Want
TTITLE10=All Night Long
TTITLE11=Second Class Zone
TTITLE12=Back On The Road
EXTD=
EXTT0=
EXTT1=
EXTT2=
EXTT3=
EXTT4=
EXTT5=
EXTT6=
EXTT7=
EXTT8=
EXTT9=
EXTT10=
EXTT11=
EXTT12=
PLAYORDER=
